<svg width="110" height="110" viewBox="0 0 110 110" fill="none" xmlns="http://www.w3.org/2000/svg">
<rect width="110" height="110" rx="50" fill="#FA7CD4"/>
<path d="M51.5 80C51.5 81.933 53.067 83.5 55 83.5C56.933 83.5 58.5 81.933 58.5 80H55H51.5ZM57.4749 33.5251C56.108 32.1583 53.892 32.1583 52.5251 33.5251L30.2513 55.799C28.8844 57.1658 28.8844 59.3819 30.2513 60.7487C31.6181 62.1156 33.8342 62.1156 35.201 60.7487L55 40.9497L74.799 60.7487C76.1658 62.1156 78.3819 62.1156 79.7487 60.7487C81.1156 59.3819 81.1156 57.1658 79.7487 55.799L57.4749 33.5251ZM55 80H58.5L58.5 36H55H51.5L51.5 80H55Z" fill="white"/>
</svg>
